<mxfile host="app.diagrams.net" agent="Mozilla/5.0 (Windows NT 10.0; Win64; x64) AppleWebKit/537.36 (KHTML, like Gecko) Chrome/141.0.0.0 Safari/537.36" version="28.2.5">
  <diagram name="Page-1" id="6w83qwvvhu-XczMMktj-">
    <mxGraphModel dx="982" dy="550" grid="1" gridSize="10" guides="1" tooltips="1" connect="1" arrows="1" fold="1" page="1" pageScale="1" pageWidth="850" pageHeight="1100" math="0" shadow="0">
      <root>
        <mxCell id="0" />
        <mxCell id="1" parent="0" />
        <mxCell id="5bDC6j52NLLrbbL7up8l-8" style="edgeStyle=orthogonalEdgeStyle;rounded=0;orthogonalLoop=1;jettySize=auto;html=1;" edge="1" parent="1" source="5bDC6j52NLLrbbL7up8l-1" target="5bDC6j52NLLrbbL7up8l-7">
          <mxGeometry relative="1" as="geometry" />
        </mxCell>
        <mxCell id="5bDC6j52NLLrbbL7up8l-1" value="Preprocessing" style="shape=process;whiteSpace=wrap;html=1;backgroundOutline=1;fillColor=#ffe6cc;strokeColor=#d79b00;" vertex="1" parent="1">
          <mxGeometry x="270" y="120" width="120" height="60" as="geometry" />
        </mxCell>
        <mxCell id="5bDC6j52NLLrbbL7up8l-5" value="" style="edgeStyle=orthogonalEdgeStyle;rounded=0;orthogonalLoop=1;jettySize=auto;html=1;" edge="1" parent="1" source="5bDC6j52NLLrbbL7up8l-3" target="5bDC6j52NLLrbbL7up8l-4">
          <mxGeometry relative="1" as="geometry" />
        </mxCell>
        <mxCell id="5bDC6j52NLLrbbL7up8l-3" value="Xray image" style="shape=parallelogram;perimeter=parallelogramPerimeter;whiteSpace=wrap;html=1;fixedSize=1;fillColor=#f8cecc;strokeColor=#b85450;" vertex="1" parent="1">
          <mxGeometry x="70" y="30" width="120" height="60" as="geometry" />
        </mxCell>
        <mxCell id="5bDC6j52NLLrbbL7up8l-6" style="edgeStyle=orthogonalEdgeStyle;rounded=0;orthogonalLoop=1;jettySize=auto;html=1;exitX=0.5;exitY=1;exitDx=0;exitDy=0;entryX=0.5;entryY=0;entryDx=0;entryDy=0;" edge="1" parent="1" source="5bDC6j52NLLrbbL7up8l-4" target="5bDC6j52NLLrbbL7up8l-1">
          <mxGeometry relative="1" as="geometry" />
        </mxCell>
        <mxCell id="5bDC6j52NLLrbbL7up8l-4" value="Web app" style="whiteSpace=wrap;html=1;fillColor=#dae8fc;strokeColor=#6c8ebf;" vertex="1" parent="1">
          <mxGeometry x="270" y="30" width="120" height="60" as="geometry" />
        </mxCell>
        <mxCell id="5bDC6j52NLLrbbL7up8l-10" style="edgeStyle=orthogonalEdgeStyle;rounded=0;orthogonalLoop=1;jettySize=auto;html=1;exitX=0.5;exitY=1;exitDx=0;exitDy=0;entryX=0.5;entryY=0;entryDx=0;entryDy=0;" edge="1" parent="1" source="5bDC6j52NLLrbbL7up8l-7" target="5bDC6j52NLLrbbL7up8l-9">
          <mxGeometry relative="1" as="geometry" />
        </mxCell>
        <mxCell id="5bDC6j52NLLrbbL7up8l-7" value="KNN Predictor" style="shape=process;whiteSpace=wrap;html=1;backgroundOutline=1;fillColor=#ffe6cc;strokeColor=#d79b00;" vertex="1" parent="1">
          <mxGeometry x="170" y="220" width="120" height="60" as="geometry" />
        </mxCell>
        <mxCell id="5bDC6j52NLLrbbL7up8l-12" style="edgeStyle=orthogonalEdgeStyle;rounded=0;orthogonalLoop=1;jettySize=auto;html=1;exitX=1;exitY=0.5;exitDx=0;exitDy=0;" edge="1" parent="1" source="5bDC6j52NLLrbbL7up8l-9" target="5bDC6j52NLLrbbL7up8l-11">
          <mxGeometry relative="1" as="geometry" />
        </mxCell>
        <mxCell id="5bDC6j52NLLrbbL7up8l-9" value="Predictions" style="shape=parallelogram;perimeter=parallelogramPerimeter;whiteSpace=wrap;html=1;fixedSize=1;fillColor=#f8cecc;strokeColor=#b85450;" vertex="1" parent="1">
          <mxGeometry x="70" y="320" width="120" height="60" as="geometry" />
        </mxCell>
        <mxCell id="5bDC6j52NLLrbbL7up8l-15" style="edgeStyle=orthogonalEdgeStyle;rounded=0;orthogonalLoop=1;jettySize=auto;html=1;exitX=0.5;exitY=1;exitDx=0;exitDy=0;entryX=0.5;entryY=0;entryDx=0;entryDy=0;" edge="1" parent="1" source="5bDC6j52NLLrbbL7up8l-11" target="5bDC6j52NLLrbbL7up8l-13">
          <mxGeometry relative="1" as="geometry" />
        </mxCell>
        <mxCell id="5bDC6j52NLLrbbL7up8l-11" value="Web app" style="rounded=0;whiteSpace=wrap;html=1;fillColor=#dae8fc;strokeColor=#6c8ebf;" vertex="1" parent="1">
          <mxGeometry x="270" y="320" width="120" height="60" as="geometry" />
        </mxCell>
        <mxCell id="5bDC6j52NLLrbbL7up8l-13" value="Export results" style="shape=process;whiteSpace=wrap;html=1;backgroundOutline=1;fillColor=#ffe6cc;strokeColor=#d79b00;" vertex="1" parent="1">
          <mxGeometry x="270" y="410" width="120" height="60" as="geometry" />
        </mxCell>
        <mxCell id="5bDC6j52NLLrbbL7up8l-18" style="edgeStyle=orthogonalEdgeStyle;rounded=0;orthogonalLoop=1;jettySize=auto;html=1;exitX=1;exitY=0.5;exitDx=0;exitDy=0;entryX=0;entryY=0.5;entryDx=0;entryDy=0;" edge="1" parent="1" source="5bDC6j52NLLrbbL7up8l-16" target="5bDC6j52NLLrbbL7up8l-17">
          <mxGeometry relative="1" as="geometry" />
        </mxCell>
        <mxCell id="5bDC6j52NLLrbbL7up8l-16" value="Chest14 Dataset" style="shape=parallelogram;perimeter=parallelogramPerimeter;whiteSpace=wrap;html=1;fixedSize=1;fillColor=#f8cecc;strokeColor=#b85450;" vertex="1" parent="1">
          <mxGeometry x="470" y="30" width="120" height="60" as="geometry" />
        </mxCell>
        <mxCell id="5bDC6j52NLLrbbL7up8l-20" value="" style="edgeStyle=orthogonalEdgeStyle;rounded=0;orthogonalLoop=1;jettySize=auto;html=1;" edge="1" parent="1" source="5bDC6j52NLLrbbL7up8l-17" target="5bDC6j52NLLrbbL7up8l-19">
          <mxGeometry relative="1" as="geometry" />
        </mxCell>
        <mxCell id="5bDC6j52NLLrbbL7up8l-17" value="Preprocessing" style="shape=process;whiteSpace=wrap;html=1;backgroundOutline=1;fillColor=#ffe6cc;strokeColor=#d79b00;" vertex="1" parent="1">
          <mxGeometry x="670" y="30" width="120" height="60" as="geometry" />
        </mxCell>
        <mxCell id="5bDC6j52NLLrbbL7up8l-22" value="" style="edgeStyle=orthogonalEdgeStyle;rounded=0;orthogonalLoop=1;jettySize=auto;html=1;entryX=1;entryY=0.5;entryDx=0;entryDy=0;" edge="1" parent="1" source="5bDC6j52NLLrbbL7up8l-19" target="5bDC6j52NLLrbbL7up8l-23">
          <mxGeometry relative="1" as="geometry">
            <mxPoint x="590" y="150" as="targetPoint" />
          </mxGeometry>
        </mxCell>
        <mxCell id="5bDC6j52NLLrbbL7up8l-19" value="Train KNN" style="shape=process;whiteSpace=wrap;html=1;backgroundOutline=1;fillColor=#ffe6cc;strokeColor=#d79b00;" vertex="1" parent="1">
          <mxGeometry x="670" y="120" width="120" height="60" as="geometry" />
        </mxCell>
        <mxCell id="5bDC6j52NLLrbbL7up8l-23" value="Trained&amp;nbsp;&lt;div&gt;KNN Model&lt;/div&gt;" style="shape=parallelogram;perimeter=parallelogramPerimeter;whiteSpace=wrap;html=1;fixedSize=1;fillColor=#f8cecc;strokeColor=#b85450;" vertex="1" parent="1">
          <mxGeometry x="470" y="120" width="120" height="60" as="geometry" />
        </mxCell>
        <mxCell id="5bDC6j52NLLrbbL7up8l-25" style="edgeStyle=orthogonalEdgeStyle;rounded=0;orthogonalLoop=1;jettySize=auto;html=1;exitX=0.5;exitY=1;exitDx=0;exitDy=0;entryX=0.5;entryY=0;entryDx=0;entryDy=0;" edge="1" parent="1" source="5bDC6j52NLLrbbL7up8l-24" target="5bDC6j52NLLrbbL7up8l-7">
          <mxGeometry relative="1" as="geometry" />
        </mxCell>
        <mxCell id="5bDC6j52NLLrbbL7up8l-24" value="Trained&amp;nbsp;&lt;div&gt;KNN Model&lt;/div&gt;" style="shape=parallelogram;perimeter=parallelogramPerimeter;whiteSpace=wrap;html=1;fixedSize=1;fillColor=#f8cecc;strokeColor=#b85450;" vertex="1" parent="1">
          <mxGeometry x="70" y="120" width="120" height="60" as="geometry" />
        </mxCell>
      </root>
    </mxGraphModel>
  </diagram>
</mxfile>
